<svg width="233" height="391" viewBox="0 0 233 391" fill="none" xmlns="http://www.w3.org/2000/svg">
<path d="M121.837 90C84.1961 90 53.6029 126.5 52.9033 171.847C39.6041 184.732 31.0001 205.253 31 228.369C31 267.377 55.4993 299 85.7207 299C96.4722 299 106.499 294.997 114.957 288.084C123.878 294.953 134.819 299 146.644 299C176.664 299 201 272.925 201 240.761C201 225.632 195.616 211.85 186.788 201.495C189.375 192.726 190.785 183.279 190.785 173.435C190.785 127.355 159.916 90 121.837 90Z" fill="#8BB83E"/>
<path d="M124.32 257.164L166.284 227.796L170.32 230.747L124.32 262.94V391H114.32V272.841L114.046 273.158L64.0449 250.979L67.3203 247.201L114.32 268.049V210H124.32V257.164Z" fill="#744C29"/>
</svg>
