<svg width="137" height="310" viewBox="0 0 137 310" fill="none" xmlns="http://www.w3.org/2000/svg">
<path d="M68.5 0C100.809 0 127 25.5198 127 57C127 66.56 124.583 75.5696 120.314 83.4824C130.71 94.88 137 109.743 137 126C137 161.899 106.332 191 68.5 191C30.6685 191 0 161.899 0 126C0 109.743 6.2888 94.88 16.6846 83.4824C12.416 75.5697 10 66.5599 10 57C10 25.5198 36.1913 0 68.5 0Z" fill="#8BB83E"/>
<path d="M89 118L71 158.736V310H64V157.555L40 130L42.2627 128.029L66.7021 156.091L84.4268 115.979L89 118Z" fill="#744C29"/>
</svg>
