<svg width="233" height="391" viewBox="0 0 233 391" fill="none" xmlns="http://www.w3.org/2000/svg">
<path d="M108.5 0C160.09 0 202.021 44.1838 202.98 99.0771C221.208 114.675 233 139.518 233 167.5C233 214.72 199.421 253 158 253C143.264 253 129.522 248.154 117.931 239.786C105.704 248.102 90.7065 253 74.5 253C33.3548 253 0 221.436 0 182.5C0 164.186 7.37964 147.502 19.4785 134.968C15.9323 124.352 14 112.917 14 101C14 45.2192 56.3091 0 108.5 0Z" fill="#8BB83E"/>
<path d="M124 205.005L166.504 163.426L170 167L124 212V391H114V225.023L64.3652 194.25L67 190L114 219.14V138H124V205.005Z" fill="#744C29"/>
</svg>
