<svg width="337" height="219" viewBox="0 0 337 219" fill="none" xmlns="http://www.w3.org/2000/svg">
Style{
    #Auto {
    position: absolute;          
    bottom: 20px;
    left: 0;
    width: 150px;
    transition: left 1.5s ease-in-out;
    animation: tuckern 0.2s infinite ease-in-out;
    }

    @keyframes tuckern {
    0%, 100% { transform: translateY(0); }
    50% { transform: translateY(-1px); }
    }

    #RadLinks, #RadRechts {
    transform-box: fill-box;     
    transform-origin: center;    
    animation: wheelspin 1s linear infinite;
    }

    @keyframes wheelspin {
    from { transform: rotate(0deg); }
    to { transform: rotate(360deg); }
    }
}
<g id="Postauto" clip-path="url(#clip0_2_2)">
<g id="Auto">
<path id="Vector" d="M210 0C214.395 0 218.236 2.36413 220.326 5.88867L220.492 5.59082L269.008 93.3203C270.249 93.3223 271.511 93.4686 272.771 93.7744L317.472 104.627C324.217 106.264 328.915 111.954 329.61 118.48C329.865 119.613 330 120.791 330 122V163C330 171.837 322.837 179 314 179H21C14.3726 179 9 173.627 9 167V12C9 5.37259 14.3726 0 21 0H210Z" fill="#C82121"/>
<g id="Vector_2" filter="url(#filter0_i_2_2)">
<path d="M206.374 15.2946C210.4 14.3261 215.052 16.291 217.059 19.9303L252.958 85.0299C255.646 89.9037 252.26 95.0788 246.384 95.0788H226.51C226.099 95.0788 225.691 95.0504 225.287 94.9997H180C175.582 94.9997 172 91.4179 172 86.9997V72.9997C172 72.5985 172.03 72.2043 172.087 71.819C172.079 71.6745 172.075 71.5289 172.075 71.3825V23.0768C172.075 18.6586 175.657 15.0768 180.075 15.0768H204.521C205.159 15.0768 205.779 15.1535 206.374 15.2946Z" fill="#DAFBFF"/>
</g>
<path id="Vector_3" d="M185 110C185 107.239 187.239 105 190 105H201C203.761 105 206 107.239 206 110C206 112.761 203.761 115 201 115H190C187.239 115 185 112.761 185 110Z" fill="#744C29"/>
<g id="Rectangle 39" filter="url(#filter1_i_2_2)">
<path d="M7 162C7 157.582 10.5817 154 15 154H29C33.4183 154 37 157.582 37 162V171C37 175.418 33.4183 179 29 179H15C10.5817 179 7 175.418 7 171V162Z" fill="#744C29"/>
</g>
<g id="Rectangle 40" filter="url(#filter2_i_2_2)">
<path d="M292 163C292 158.582 295.582 155 300 155H324C328.418 155 332 158.582 332 163V172C332 176.418 328.418 180 324 180H300C295.582 180 292 176.418 292 172V163Z" fill="#744C29"/>
</g>
<path id="Vector_4" d="M44 43C44 36.3726 49.3726 31 56 31H122C128.627 31 134 36.3726 134 43V83C134 89.6274 128.627 95 122 95H56C49.3726 95 44 89.6274 44 83V43Z" fill="#F5F5F5"/>
<path id="Union_3" d="M123.293 37.4697C124.41 36.6582 125.973 36.9056 126.785 38.0224C127.597 39.1393 127.349 40.703 126.232 41.5146L90.6357 67.3769C90.18 67.7079 89.6498 67.8601 89.1269 67.8515C88.6043 67.8598 88.0744 67.7077 87.6191 67.3769L52.0224 41.5146C50.9056 40.703 50.6581 39.1393 51.4696 38.0224C52.2812 36.9056 53.8449 36.6581 54.9618 37.4697L89.1269 62.2919L123.293 37.4697Z" fill="#D9D9D9"/>
<g id="Vector_5" filter="url(#filter3_di_2_2)">
<path d="M318 145C322.971 145 327 139.627 327 133C327 126.373 322.971 121 318 121C313.029 121 309 126.373 309 133C309 139.627 313.029 145 318 145Z" fill="#D3BA00"/>
</g>
</g>
<g id="Schatten" filter="url(#filter4_f_2_2)">
<g id="Vector_6" style="mix-blend-mode:darken">
<path d="M4 193C4 188.582 7.58172 185 12 185H325C329.418 185 333 188.582 333 193V207C333 211.418 329.418 215 325 215H12C7.58173 215 4 211.418 4 207V193Z" fill="#605454" fill-opacity="0.75"/>
</g>
</g>
<g id="RadRechts" filter="url(#filter5_i_2_2)">
<path id="Vector_7" d="M255 209C271.569 209 285 195.569 285 179C285 162.431 271.569 149 255 149C238.431 149 225 162.431 225 179C225 195.569 238.431 209 255 209Z" fill="#4B2727"/>
<g id="Vector_8" filter="url(#filter6_i_2_2)">
<path d="M255 194C263.284 194 270 187.284 270 179C270 170.716 263.284 164 255 164C246.716 164 240 170.716 240 179C240 187.284 246.716 194 255 194Z" fill="#979696"/>
</g>
<path id="Ellipse 7" d="M236.233 174.684C236.459 173.783 236.66 172.615 237.108 171.79C237.114 171.778 237.12 171.767 237.126 171.755C237.307 171.42 237.515 171.09 237.779 170.703C237.813 170.654 237.848 170.604 237.884 170.552C238.203 170.098 238.603 169.55 239.186 168.842C241.128 166.472 242.87 164.792 243.433 164.26C244.557 163.213 245.958 162.292 248.049 161.446C248.24 161.37 248.439 161.295 248.642 161.221C248.808 161.162 248.977 161.217 249.018 161.342C249.06 161.467 248.962 161.614 248.802 161.673C248.608 161.744 248.419 161.817 248.237 161.891L248.234 161.892C246.188 162.732 244.86 163.621 243.794 164.62C243.235 165.152 241.505 166.837 239.589 169.206C239.022 169.905 238.633 170.445 238.324 170.891C238.291 170.94 238.258 170.988 238.226 171.035L238.224 171.038C237.969 171.416 237.776 171.726 237.611 172.037C237.607 172.044 237.604 172.051 237.601 172.058C237.166 172.87 236.995 173.987 236.786 174.836C236.745 174.998 236.59 175.099 236.435 175.06C236.281 175.021 236.189 174.852 236.233 174.684ZM273.977 189.122C273.619 190.103 272.912 191.31 272.169 192.283C271.426 193.27 270.636 194.061 270.252 194.415C269.876 194.763 269.472 195.16 268.971 195.614C268.856 195.718 268.736 195.825 268.611 195.934C268.196 196.295 267.721 196.681 267.174 197.07C265.155 198.488 263.68 199.161 262.63 199.624C262.413 199.718 262.21 199.802 262.018 199.878H262.017C261.294 200.165 260.741 200.345 260.222 200.476C259.301 200.706 258.533 200.847 257.606 200.943C256.326 201.088 254.498 201.213 253.296 201.208C253.23 201.208 253.163 201.208 253.094 201.208C252.991 201.208 252.884 201.207 252.774 201.205C251.956 201.187 250.953 201.136 249.548 200.869C248.226 200.615 247.103 200.25 246.137 199.867C245.859 199.757 245.597 199.646 245.348 199.535C244.717 199.255 244.166 198.976 243.653 198.701C240.479 196.955 239.027 195.36 238.127 194.419C237.446 193.671 237.109 193.215 236.865 192.89C236.791 192.791 236.727 192.703 236.667 192.62C236.13 191.882 235.661 191.186 235.153 190.314C235.041 190.12 234.926 189.917 234.811 189.702C234.425 188.985 234.163 188.435 233.966 188.001C233.879 187.811 233.805 187.643 233.737 187.483C233.736 187.48 233.735 187.477 233.733 187.474C233.724 187.452 233.715 187.43 233.705 187.408C233.698 187.392 233.691 187.375 233.685 187.358C233.682 187.352 233.679 187.346 233.677 187.342C233.676 187.338 233.675 187.336 233.674 187.334L233.673 187.333C233.66 187.302 233.649 187.275 233.646 187.269C233.642 187.26 233.639 187.251 233.637 187.247C233.627 187.223 233.615 187.193 233.607 187.174C233.587 187.122 233.551 187.033 233.498 186.894C233.451 186.774 233.407 186.658 233.353 186.512C233.35 186.502 233.346 186.493 233.343 186.484C233.291 186.342 233.231 186.175 233.16 185.964C233.095 185.772 233.046 185.592 233.047 185.563C233.048 185.535 233.098 185.669 233.162 185.861C233.229 186.06 233.285 186.216 233.337 186.358C233.34 186.367 233.343 186.376 233.347 186.385C233.401 186.532 233.454 186.673 233.513 186.823C233.532 186.873 233.552 186.925 233.571 186.974C233.606 187.06 233.646 187.159 233.695 187.276C233.705 187.299 233.715 187.324 233.726 187.348C233.793 187.507 233.874 187.692 233.968 187.899C234.188 188.381 234.478 188.987 234.904 189.763C235.016 189.966 235.127 190.161 235.239 190.35C235.754 191.22 236.261 191.962 236.839 192.736C236.919 192.842 236.995 192.944 237.078 193.052C237.325 193.37 237.617 193.754 238.251 194.437C239.113 195.322 240.529 196.871 243.674 198.591C244.211 198.878 244.798 199.17 245.438 199.449C245.682 199.556 245.934 199.66 246.194 199.762C247.142 200.132 248.225 200.478 249.494 200.722C250.946 200.996 251.952 201.04 252.786 201.054C252.841 201.055 252.896 201.056 252.949 201.056C252.979 201.056 253.009 201.056 253.039 201.056C253.076 201.056 253.113 201.056 253.149 201.056C254.423 201.065 256.354 200.927 257.754 200.752C258.633 200.65 259.36 200.511 260.267 200.277C260.714 200.159 261.182 200.006 261.885 199.728C262.082 199.649 262.297 199.56 262.535 199.457C263.592 198.986 265.073 198.302 267.086 196.869C267.608 196.493 268.056 196.125 268.463 195.769C268.589 195.658 268.712 195.548 268.831 195.439C269.327 194.985 269.771 194.544 270.196 194.142C270.546 193.813 271.295 193.049 272.004 192.096C272.721 191.141 273.355 190.032 273.67 189.18C273.703 189.092 273.736 189.003 273.768 188.914C274.046 188.144 274.273 187.346 274.357 186.678C274.442 185.152 274.737 183.179 274.804 181.114C274.887 179.031 274.726 176.887 274.339 175.23C274.329 175.187 274.319 175.144 274.308 175.101C273.397 171.284 271.659 168.943 271.114 168.179C271.087 168.143 271.063 168.11 271.041 168.08C271.022 168.054 271.004 168.031 270.988 168.01C270.754 167.697 270.529 167.434 270.288 167.165C270.274 167.151 270.261 167.136 270.248 167.121C269.991 166.838 269.716 166.547 269.392 166.205C268.184 164.933 267.04 164.067 266.013 163.4C265.823 163.277 265.636 163.161 265.452 163.051L265.45 163.05C264.641 162.567 263.894 162.195 263.177 161.871C261.865 161.284 260.924 161.034 260.195 160.866C259.965 160.813 259.754 160.771 259.553 160.734C259.119 160.653 258.739 160.597 258.347 160.539C257.611 160.429 256.927 160.388 256.254 160.381C256.194 160.38 256.134 160.379 256.074 160.379C256.056 160.379 256.038 160.379 256.02 160.379C255.307 160.38 254.609 160.416 253.876 160.467C253.702 160.479 253.553 160.39 253.542 160.265C253.533 160.139 253.669 160.026 253.848 160.014C254.595 159.966 255.308 159.932 256.055 159.936H256.056C256.117 159.936 256.179 159.937 256.241 159.938C256.928 159.948 257.639 159.993 258.405 160.111C258.791 160.171 259.156 160.226 259.592 160.307C259.799 160.346 260.02 160.391 260.268 160.448C261.023 160.626 261.996 160.888 263.345 161.5C264.066 161.83 264.817 162.207 265.64 162.702C265.829 162.816 266.021 162.937 266.217 163.064C267.264 163.75 268.431 164.642 269.663 165.95C269.973 166.281 270.237 166.562 270.496 166.85C270.511 166.866 270.525 166.882 270.54 166.898C270.783 167.171 271.024 167.453 271.274 167.791C271.308 167.836 271.35 167.893 271.401 167.963C271.953 168.744 273.718 171.144 274.627 175.042C274.629 175.054 274.632 175.066 274.635 175.078C275.207 177.685 275.166 179.21 275.24 180.351C275.254 180.638 275.258 180.903 275.256 181.15C275.25 181.681 275.217 182.11 275.177 182.49C275.166 182.596 275.154 182.696 275.143 182.791C275.092 183.201 275.042 183.525 275.002 183.851C274.876 184.835 274.788 185.553 274.689 186.44C274.603 187.196 274.35 188.086 274.075 188.851C274.075 188.851 274.075 188.853 274.074 188.855C274.042 188.945 274.009 189.035 273.977 189.122ZM232.41 183.123C232.372 182.922 232.35 182.759 232.356 182.76C232.362 182.761 232.395 182.926 232.434 183.127C232.524 183.606 232.631 184.084 232.753 184.555C232.805 184.754 232.842 184.914 232.834 184.914C232.825 184.914 232.774 184.754 232.723 184.555C232.603 184.082 232.498 183.603 232.41 183.123ZM275.517 188.901C275.445 189.094 275.314 189.26 275.23 189.272C275.146 189.283 275.14 189.138 275.212 188.948C275.249 188.847 275.31 188.681 275.387 188.455C275.783 187.312 276.581 184.576 276.631 181.26C276.658 179.901 276.572 178.457 276.358 177.013C276.297 176.596 276.229 176.221 276.156 175.87C275.815 174.37 275.376 173.196 274.194 170.554C271.005 163.558 263.962 158.419 256.221 157.854C251.712 157.47 247.075 158.621 243.358 161.13C240.457 163.077 238.011 165.628 236.258 168.608C234.628 171.011 233.115 176.161 233.112 177.443C233.09 177.638 232.945 177.786 232.783 177.773H232.78C232.618 177.758 232.502 177.582 232.526 177.38C232.534 176.073 234.099 170.803 235.772 168.353C237.576 165.308 240.085 162.708 243.053 160.729C246.872 158.166 251.608 156.917 256.269 157.246C264.235 157.696 271.668 162.961 274.892 170.255C276.074 172.989 276.114 174.243 276.458 175.751C276.531 176.108 276.6 176.49 276.662 176.917C276.88 178.405 276.963 179.891 276.929 181.283C276.865 184.541 276.095 187.224 275.7 188.382C275.62 188.617 275.557 188.793 275.517 188.901ZM269.629 196.618C267.898 198.191 265.029 199.967 262.28 200.892C260.948 201.359 259.666 201.659 258.634 201.839C257.032 202.111 256.005 202.123 254.994 202.11C254.983 202.109 254.972 202.109 254.961 202.109C254.277 202.093 253.594 202.057 252.713 201.973C252.296 201.932 251.842 201.88 251.321 201.805C249.689 201.576 247.448 201.053 245.335 200.118C245.335 200.118 245.332 200.117 245.33 200.116C243.222 199.21 241.243 197.934 239.968 196.831C235.517 192.932 234.215 189.328 233.539 187.685C232.381 184.717 231.799 181.075 232.063 177.824C232.091 177.464 232.038 178.073 232.021 178.731C232.02 178.755 232.02 178.779 232.019 178.803C232.014 179.03 232.011 179.231 232.012 179.511C232.015 179.916 232.026 180.218 232.04 180.494C231.943 181.231 232.829 186.196 233.633 187.807C234.29 189.354 235.629 192.85 240.108 196.69C241.359 197.744 243.221 199.08 245.333 199.991C245.339 199.993 245.345 199.996 245.35 199.998C247.438 200.917 249.689 201.44 251.339 201.664C251.855 201.737 252.308 201.786 252.725 201.825C253.657 201.91 254.373 201.942 255.074 201.952C255.084 201.952 255.094 201.952 255.104 201.952C256.098 201.956 257.071 201.936 258.601 201.67C259.647 201.484 260.931 201.174 262.258 200.7C264.966 199.769 267.76 198.02 269.457 196.472C269.611 196.335 269.774 196.253 269.823 196.292C269.872 196.332 269.786 196.479 269.629 196.618ZM270.511 197.692C265.67 202.049 258.817 203.935 252.627 203.053C252.16 202.991 251.701 202.916 251.243 202.826C249.523 202.541 247.164 201.884 244.999 200.819C244.975 200.807 244.95 200.795 244.926 200.784C242.777 199.743 240.862 198.332 239.613 197.2C235.159 193.106 233.915 189.42 233.277 187.736C232.731 186.106 232.651 185.635 232.487 184.95C232.483 184.932 232.479 184.913 232.475 184.894C232.475 184.894 232.474 184.892 232.474 184.89C232.469 184.867 232.464 184.847 232.462 184.837C232.457 184.816 232.453 184.799 232.452 184.793C232.449 184.778 232.446 184.766 232.445 184.761C232.441 184.744 232.437 184.723 232.434 184.71C232.408 184.586 232.331 184.202 232.28 183.895C232.227 183.581 232.194 183.355 232.163 183.119C232.16 183.095 232.157 183.071 232.154 183.047C232.126 182.833 232.098 182.6 232.065 182.263C232.046 182.059 232.038 181.913 232.045 181.938C232.052 181.963 232.072 182.148 232.094 182.352C232.131 182.706 232.163 182.953 232.193 183.167C232.196 183.191 232.199 183.215 232.203 183.239C232.235 183.464 232.266 183.664 232.314 183.942C232.386 184.344 232.449 184.641 232.51 184.912C232.682 185.619 232.778 186.163 233.367 187.861C233.994 189.443 235.194 193.038 239.669 197.131C240.92 198.255 242.835 199.653 244.975 200.679C245 200.691 245.025 200.703 245.05 200.715C247.21 201.766 249.554 202.409 251.26 202.685C251.72 202.763 252.177 202.826 252.641 202.875C258.891 203.566 265.286 201.576 270.336 197.548C271.313 196.724 272.145 195.897 272.868 195.086C274.982 192.689 276.208 190.483 276.969 188.27C277.129 187.783 277.628 186.526 278.045 184.628C278.166 184.071 278.28 183.459 278.372 182.789C278.433 182.352 278.484 181.895 278.522 181.41C278.628 180.085 278.636 178.593 278.461 176.983C278.411 176.525 278.352 176.112 278.287 175.724C277.974 174.069 277.759 172.734 276.557 169.73C275.207 165.947 270.788 160.662 267.655 158.742C266.153 157.711 265.227 157.237 264.581 156.891C264.4 156.797 264.24 156.715 264.092 156.642C263.704 156.449 263.402 156.308 262.995 156.139C260.732 155.223 258.869 154.801 256.48 154.604C255.764 154.55 255.005 154.525 254.17 154.543C253.943 154.548 253.74 154.454 253.719 154.329C253.697 154.205 253.87 154.096 254.101 154.091C254.974 154.073 255.767 154.101 256.515 154.161C258.933 154.369 260.845 154.807 263.157 155.754C263.588 155.935 263.917 156.091 264.316 156.292C264.464 156.367 264.621 156.448 264.795 156.54C265.44 156.888 266.369 157.369 267.884 158.417C271.055 160.378 275.513 165.752 276.867 169.582C278.064 172.602 278.275 173.93 278.59 175.601C278.655 175.995 278.715 176.416 278.766 176.884C278.944 178.542 278.931 180.076 278.818 181.433C278.778 181.903 278.728 182.347 278.669 182.771C278.574 183.449 278.459 184.065 278.336 184.627C277.9 186.585 277.418 187.776 277.283 188.199C276.496 190.519 275.19 192.841 273.021 195.27C272.295 196.076 271.467 196.889 270.511 197.692ZM241.491 157.754C241.689 157.633 241.918 157.629 242.001 157.74C242.084 157.852 241.992 158.036 241.799 158.155C240.778 158.785 240.088 159.304 239.558 159.718C238.585 160.495 238.146 160.906 237.475 161.507C235.75 163.067 234.316 164.831 233.228 166.546C231.405 169.402 230.558 172.08 230.158 173.484C230.094 173.705 229.921 173.855 229.766 173.817C229.611 173.78 229.536 173.565 229.601 173.338C230.012 171.913 230.881 169.197 232.742 166.292C233.859 164.539 235.331 162.733 237.108 161.135C237.774 160.542 238.198 160.147 239.169 159.372C239.709 158.949 240.42 158.412 241.491 157.754Z" fill="#8E8585"/>
</g>
<g id="RadLinks" filter="url(#filter7_i_2_2)">
<path id="Vector_9" d="M89 209C105.569 209 119 195.569 119 179C119 162.431 105.569 149 89 149C72.4315 149 59 162.431 59 179C59 195.569 72.4315 209 89 209Z" fill="#4B2727"/>
<g id="Vector_10" filter="url(#filter8_i_2_2)">
<path d="M89 194C97.2843 194 104 187.284 104 179C104 170.716 97.2843 164 89 164C80.7157 164 74 170.716 74 179C74 187.284 80.7157 194 89 194Z" fill="#979696"/>
</g>
<path id="Ellipse 6" d="M108.091 182.853C107.937 183.769 107.83 184.949 107.449 185.807C107.443 185.819 107.438 185.831 107.433 185.843C107.279 186.191 107.098 186.538 106.865 186.944C106.835 186.996 106.805 187.049 106.773 187.102C106.491 187.581 106.135 188.159 105.611 188.911C103.862 191.427 102.26 193.24 101.74 193.815C100.702 194.947 99.3787 195.977 97.3619 196.986C97.177 197.077 96.9848 197.168 96.7879 197.257C96.6277 197.33 96.4549 197.288 96.4036 197.167C96.3522 197.045 96.4378 196.891 96.593 196.819C96.7807 196.733 96.9633 196.645 97.139 196.557C97.1398 196.557 97.1406 196.557 97.1414 196.556C99.1147 195.556 100.368 194.565 101.352 193.485C101.867 192.91 103.458 191.093 105.18 188.58C105.69 187.839 106.035 187.269 106.307 186.8C106.337 186.748 106.366 186.698 106.393 186.649C106.394 186.648 106.395 186.647 106.396 186.646C106.62 186.248 106.787 185.924 106.928 185.6C106.93 185.593 106.933 185.587 106.936 185.58C107.305 184.735 107.387 183.608 107.528 182.746C107.555 182.581 107.703 182.467 107.86 182.494C108.016 182.521 108.121 182.682 108.091 182.853ZM69.3217 171.452C69.6011 170.446 70.2101 169.186 70.8735 168.157C71.5357 167.115 72.2606 166.264 72.6158 165.88C72.9629 165.504 73.3339 165.076 73.7973 164.584C73.9036 164.471 74.0148 164.354 74.1312 164.236C74.5157 163.843 74.9588 163.42 75.4737 162.99C77.374 161.416 78.7909 160.629 79.8002 160.084C80.0095 159.973 80.2056 159.873 80.3902 159.782C80.3899 159.782 80.3905 159.782 80.3902 159.782C81.0889 159.439 81.6267 159.215 82.1331 159.043C83.0335 158.742 83.7876 158.54 84.7046 158.371C85.9687 158.125 87.7806 157.855 88.9796 157.765C89.0453 157.76 89.1126 157.754 89.1809 157.749C89.284 157.741 89.3901 157.733 89.5 157.726C90.3172 157.679 91.3207 157.651 92.7424 157.805C94.0802 157.955 95.229 158.229 96.2223 158.534C96.5078 158.622 96.7778 158.712 97.0349 158.802C97.6866 159.032 98.2578 159.266 98.7914 159.5C102.093 160.989 103.667 162.464 104.639 163.331C105.377 164.022 105.749 164.45 106.019 164.755C106.1 164.847 106.171 164.93 106.237 165.007C106.831 165.701 107.354 166.357 107.929 167.187C108.057 167.371 108.186 167.564 108.319 167.769C108.761 168.453 109.064 168.981 109.296 169.398C109.397 169.581 109.484 169.743 109.565 169.896C109.566 169.899 109.568 169.902 109.569 169.905C109.58 169.926 109.591 169.948 109.602 169.969C109.611 169.985 109.619 170 109.627 170.016C109.631 170.023 109.633 170.028 109.636 170.032C109.637 170.036 109.639 170.038 109.64 170.04V170.041C109.656 170.071 109.67 170.097 109.672 170.102C109.677 170.112 109.681 170.12 109.683 170.124C109.695 170.146 109.709 170.175 109.719 170.195C109.743 170.244 109.786 170.33 109.85 170.464C109.906 170.581 109.959 170.693 110.025 170.834C110.029 170.843 110.033 170.852 110.037 170.861C110.1 170.998 110.173 171.16 110.261 171.365C110.341 171.551 110.404 171.727 110.405 171.755C110.407 171.784 110.346 171.654 110.267 171.468C110.184 171.275 110.116 171.124 110.053 170.986C110.049 170.978 110.045 170.969 110.041 170.96C109.975 170.817 109.911 170.681 109.841 170.536C109.817 170.488 109.793 170.438 109.77 170.391C109.729 170.307 109.681 170.212 109.623 170.1C109.611 170.077 109.599 170.053 109.587 170.03C109.507 169.877 109.412 169.699 109.302 169.501C109.044 169.037 108.707 168.455 108.221 167.716C108.093 167.523 107.967 167.337 107.841 167.158C107.258 166.331 106.694 165.631 106.056 164.906C105.968 164.806 105.884 164.711 105.793 164.61C105.522 164.313 105.2 163.953 104.514 163.322C103.584 162.508 102.05 161.076 98.7785 159.611C98.2207 159.368 97.6127 159.123 96.9521 158.895C96.7008 158.808 96.4412 158.724 96.174 158.643C95.2 158.35 94.0926 158.091 92.808 157.948C91.3389 157.79 90.3322 157.826 89.5 157.878C89.445 157.881 89.3908 157.885 89.3373 157.889C89.3075 157.891 89.2777 157.894 89.2479 157.896C89.211 157.899 89.1743 157.902 89.138 157.905C87.8676 157.997 85.9538 158.287 84.5719 158.573C83.7034 158.744 82.9897 158.941 82.1046 159.245C81.6683 159.398 81.2138 159.588 80.5346 159.921C80.3445 160.015 80.1372 160.121 79.9086 160.243C78.892 160.796 77.4699 161.595 75.5773 163.183C75.0863 163.599 74.6684 164.001 74.2915 164.389C74.1745 164.51 74.061 164.629 73.9509 164.747C73.4923 165.239 73.085 165.714 72.6932 166.148C72.3705 166.504 71.6836 167.325 71.0532 168.331C70.4134 169.34 69.87 170.496 69.6233 171.37C69.5973 171.46 69.5716 171.552 69.5466 171.643C69.3304 172.432 69.1671 173.246 69.1363 173.919C69.1727 175.447 69.0351 177.436 69.1317 179.5C69.2141 181.583 69.5443 183.708 70.0623 185.329C70.0756 185.371 70.089 185.413 70.1026 185.455C71.3136 189.188 73.2316 191.384 73.8358 192.103C73.865 192.136 73.8917 192.167 73.9158 192.195C73.9373 192.219 73.957 192.241 73.9741 192.261C74.2326 192.554 74.4775 192.798 74.7398 193.047C74.7541 193.061 74.7685 193.074 74.7828 193.088C75.0611 193.35 75.3582 193.618 75.7083 193.934C77.0138 195.106 78.2222 195.879 79.2988 196.461C79.4983 196.569 79.6941 196.67 79.8867 196.766C79.8872 196.766 79.8878 196.766 79.8884 196.767C80.7329 197.184 81.5075 197.495 82.2478 197.761C83.6015 198.242 84.56 198.417 85.2995 198.527C85.5332 198.561 85.7473 198.587 85.9502 198.608C86.3896 198.653 86.7729 198.679 87.1675 198.707C87.9106 198.758 88.5956 198.744 89.2668 198.698C89.3268 198.694 89.3868 198.69 89.4467 198.685C89.4645 198.684 89.4822 198.683 89.5 198.681C90.2115 198.624 90.9044 198.532 91.6305 198.424C91.8035 198.398 91.9591 198.475 91.9791 198.599C91.9989 198.723 91.8718 198.847 91.6941 198.873C90.9535 198.98 90.2458 199.071 89.5 199.126C89.4384 199.13 89.3766 199.135 89.3146 199.139C88.6296 199.183 87.917 199.194 87.144 199.138C86.755 199.109 86.386 199.083 85.9456 199.036C85.7357 199.013 85.5119 198.986 85.2601 198.949C84.4933 198.832 83.5027 198.647 82.1098 198.145C81.3646 197.873 80.5857 197.556 79.7267 197.128C79.5294 197.029 79.3281 196.924 79.1227 196.813C78.0247 196.212 76.7902 195.416 75.4591 194.209C75.1237 193.904 74.8377 193.644 74.5565 193.378C74.5408 193.363 74.5251 193.348 74.5094 193.333C74.2456 193.081 73.9829 192.818 73.7065 192.502C73.6696 192.46 73.6228 192.406 73.5667 192.34C72.9543 191.605 71.0044 189.353 69.7899 185.539C69.7862 185.528 69.7826 185.516 69.779 185.504C69.0018 182.951 68.9219 181.427 68.7576 180.296C68.7208 180.011 68.6957 179.746 68.6786 179.5C68.6424 178.971 68.6414 178.54 68.6511 178.158C68.6539 178.052 68.6573 177.951 68.6614 177.855C68.6791 177.443 68.7034 177.116 68.7176 176.788C68.765 175.796 68.7958 175.074 68.8243 174.182C68.8504 173.422 69.0319 172.515 69.245 171.73C69.2453 171.729 69.2456 171.728 69.2459 171.726C69.271 171.633 69.2964 171.542 69.3217 171.452ZM111.234 174.137C111.287 174.335 111.322 174.496 111.316 174.496C111.31 174.495 111.264 174.333 111.21 174.136C111.081 173.665 110.936 173.197 110.778 172.737C110.711 172.543 110.66 172.387 110.669 172.386C110.678 172.385 110.741 172.541 110.807 172.735C110.965 173.197 111.107 173.666 111.234 174.137ZM67.8044 171.794C67.8608 171.596 67.9778 171.42 68.0607 171.402C68.1435 171.384 68.1611 171.528 68.1047 171.724C68.075 171.827 68.0277 171.998 67.969 172.229C67.6651 173.4 67.0858 176.19 67.2995 179.5C67.3796 180.856 67.5801 182.289 67.9075 183.712C68.0018 184.122 68.0995 184.491 68.1994 184.835C68.6584 186.304 69.1898 187.439 70.5768 189.979C74.3107 196.7 81.7382 201.265 89.5 201.215C94.0254 201.239 98.5563 199.725 102.063 196.929C104.801 194.758 107.037 192.021 108.548 188.912C109.982 186.387 111.082 181.133 110.984 179.855C110.99 179.659 111.124 179.5 111.285 179.5C111.286 179.5 111.287 179.5 111.288 179.5C111.452 179.502 111.58 179.669 111.573 179.872C111.668 181.175 110.526 186.552 109.052 189.128C107.495 192.306 105.201 195.096 102.398 197.305C98.7948 200.162 94.1731 201.783 89.5 201.824C81.5239 202.007 73.6964 197.348 69.9053 190.332C68.5099 187.701 68.3706 186.454 67.908 184.977C67.807 184.627 67.7079 184.252 67.612 183.831C67.2776 182.365 67.0765 180.89 67.0004 179.5C66.8056 176.248 67.3608 173.512 67.6632 172.327C67.7236 172.085 67.7729 171.905 67.8044 171.794ZM73.0617 163.635C74.6626 161.93 77.3821 159.932 80.049 158.792C81.3401 158.221 82.5938 157.82 83.608 157.559C85.1842 157.161 86.2067 157.068 87.2159 157.001C87.2267 157 87.2374 156.999 87.2482 156.999C87.9311 156.96 88.6154 156.942 89.5 156.956C89.9194 156.964 90.3757 156.98 90.9007 157.014C92.5463 157.112 94.8219 157.456 97.0018 158.22C97.0035 158.221 97.0051 158.221 97.0068 158.222C99.1801 158.959 101.254 160.073 102.612 161.071C107.359 164.606 108.942 168.095 109.746 169.679C111.136 172.547 112.005 176.13 111.999 179.392C112 179.754 112.005 179.142 111.969 178.485C111.968 178.461 111.967 178.437 111.965 178.413C111.953 178.186 111.94 177.986 111.916 177.707C111.881 177.303 111.846 177.003 111.81 176.729C111.849 175.986 110.572 171.107 109.643 169.565C108.865 168.075 107.253 164.696 102.484 161.223C101.153 160.271 99.1915 159.087 97.0139 158.347C97.008 158.345 97.0021 158.343 96.9962 158.341C94.842 157.591 92.5573 157.248 90.8942 157.155C90.3741 157.124 89.9191 157.11 89.5 157.104C88.5641 157.094 87.8476 157.119 87.1484 157.164C87.1385 157.165 87.1286 157.166 87.1187 157.166C86.1273 157.241 85.159 157.338 83.6546 157.725C82.6272 157.994 81.3713 158.404 80.0863 158.981C77.4605 160.124 74.8133 162.089 73.2452 163.767C73.1019 163.916 72.9461 164.011 72.8943 163.975C72.8428 163.939 72.9164 163.786 73.0617 163.635ZM72.0978 162.634C76.5781 157.908 83.2601 155.484 89.5 155.872C89.9712 155.897 90.4338 155.936 90.8978 155.989C92.6351 156.137 95.0383 156.605 97.2812 157.495C97.3065 157.505 97.3318 157.515 97.357 157.525C99.5813 158.392 101.602 159.646 102.938 160.675C107.702 164.404 109.234 167.98 110.004 169.607C110.677 171.189 110.794 171.653 111.011 172.322C111.017 172.34 111.023 172.359 111.028 172.377C111.028 172.378 111.029 172.38 111.029 172.381C111.037 172.404 111.043 172.423 111.046 172.433C111.052 172.453 111.057 172.47 111.059 172.476C111.064 172.491 111.067 172.503 111.068 172.507C111.074 172.525 111.08 172.545 111.083 172.558C111.12 172.679 111.226 173.055 111.302 173.357C111.38 173.666 111.43 173.889 111.48 174.122C111.485 174.146 111.49 174.169 111.495 174.193C111.539 174.404 111.586 174.634 111.645 174.967C111.681 175.169 111.7 175.314 111.691 175.29C111.682 175.266 111.648 175.083 111.61 174.881C111.545 174.531 111.493 174.287 111.446 174.076C111.441 174.053 111.436 174.029 111.431 174.006C111.381 173.784 111.334 173.587 111.264 173.314C111.16 172.919 111.074 172.628 110.992 172.362C110.765 171.671 110.625 171.136 109.904 169.49C109.153 167.963 107.672 164.475 102.887 160.749C101.551 159.727 99.531 158.486 97.3167 157.633C97.2908 157.623 97.2649 157.612 97.2389 157.602C95.0026 156.726 92.615 156.272 90.8918 156.131C90.4278 156.09 89.9673 156.064 89.5 156.051C83.2152 155.858 76.9986 158.348 72.2833 162.764C71.3747 163.663 70.6106 164.553 69.9548 165.419C68.0373 167.976 66.9898 170.272 66.4061 172.539C66.2854 173.036 65.8881 174.329 65.6227 176.254C65.5458 176.819 65.4814 177.438 65.4422 178.114C65.4167 178.554 65.4021 179.014 65.402 179.5C65.4017 180.829 65.5118 182.317 65.8142 183.908C65.9003 184.36 65.992 184.767 66.0873 185.15C66.5305 186.775 66.8501 188.089 68.2862 190.987C69.9327 194.652 74.7567 199.569 78.0318 201.235C79.6109 202.144 80.5715 202.544 81.2429 202.836C81.4307 202.916 81.5968 202.985 81.7501 203.047C82.1518 203.208 82.4642 203.325 82.883 203.461C85.2114 204.195 87.1019 204.468 89.5 204.475C90.2179 204.472 90.9762 204.436 91.8075 204.352C92.0328 204.329 92.2423 204.407 92.2736 204.53C92.3052 204.652 92.1414 204.775 91.9117 204.798C91.0433 204.884 90.2505 204.919 89.5 204.919C87.0725 204.903 85.1318 204.618 82.7523 203.858C82.3083 203.712 81.9683 203.582 81.5539 203.413C81.4007 203.35 81.2379 203.282 81.0573 203.204C80.387 202.908 79.4224 202.502 77.8294 201.577C74.5127 199.874 69.6425 194.87 67.9899 191.159C66.5569 188.244 66.2411 186.937 65.7951 185.296C65.6988 184.908 65.6054 184.493 65.518 184.031C65.2085 182.393 65.1 180.862 65.1056 179.5C65.1075 179.029 65.1228 178.582 65.1482 178.155C65.1888 177.472 65.2546 176.848 65.3329 176.278C65.6119 174.292 65.9984 173.066 66.0992 172.634C66.6995 170.259 67.8174 167.841 69.7877 165.247C70.4473 164.386 71.2081 163.51 72.0978 162.634ZM104.192 200.146C104.004 200.283 103.776 200.305 103.684 200.201C103.593 200.096 103.67 199.905 103.853 199.771C104.821 199.062 105.468 198.49 105.963 198.035C106.872 197.184 107.276 196.739 107.898 196.087C109.494 194.395 110.783 192.523 111.732 190.727C113.322 187.736 113.955 184.999 114.243 183.568C114.288 183.342 114.449 183.18 114.607 183.205C114.764 183.23 114.856 183.437 114.809 183.669C114.512 185.122 113.861 187.899 112.236 190.942C111.262 192.778 109.938 194.695 108.293 196.429C107.676 197.073 107.285 197.5 106.378 198.35C105.873 198.814 105.207 199.405 104.192 200.146Z" fill="#8E8585"/>
</g>
</g>
<defs>
<filter id="filter0_i_2_2" x="172" y="15.0488" width="81.8934" height="84.03" filterUnits="userSpaceOnUse" color-interpolation-filters="sRGB">
<feFlood flood-opacity="0" result="BackgroundImageFix"/>
<feBlend mode="normal" in="SourceGraphic" in2="BackgroundImageFix" result="shape"/>
<feColorMatrix in="SourceAlpha" type="matrix" values="0 0 0 0 0 0 0 0 0 0 0 0 0 0 0 0 0 0 127 0" result="hardAlpha"/>
<feOffset dy="4"/>
<feGaussianBlur stdDeviation="2"/>
<feComposite in2="hardAlpha" operator="arithmetic" k2="-1" k3="1"/>
<feColorMatrix type="matrix" values="0 0 0 0 0 0 0 0 0 0 0 0 0 0 0 0 0 0 0.25 0"/>
<feBlend mode="normal" in2="shape" result="effect1_innerShadow_2_2"/>
</filter>
<filter id="filter1_i_2_2" x="7" y="154" width="30" height="29" filterUnits="userSpaceOnUse" color-interpolation-filters="sRGB">
<feFlood flood-opacity="0" result="BackgroundImageFix"/>
<feBlend mode="normal" in="SourceGraphic" in2="BackgroundImageFix" result="shape"/>
<feColorMatrix in="SourceAlpha" type="matrix" values="0 0 0 0 0 0 0 0 0 0 0 0 0 0 0 0 0 0 127 0" result="hardAlpha"/>
<feOffset dy="4"/>
<feGaussianBlur stdDeviation="2"/>
<feComposite in2="hardAlpha" operator="arithmetic" k2="-1" k3="1"/>
<feColorMatrix type="matrix" values="0 0 0 0 0 0 0 0 0 0 0 0 0 0 0 0 0 0 0.25 0"/>
<feBlend mode="normal" in2="shape" result="effect1_innerShadow_2_2"/>
</filter>
<filter id="filter2_i_2_2" x="292" y="155" width="40" height="29" filterUnits="userSpaceOnUse" color-interpolation-filters="sRGB">
<feFlood flood-opacity="0" result="BackgroundImageFix"/>
<feBlend mode="normal" in="SourceGraphic" in2="BackgroundImageFix" result="shape"/>
<feColorMatrix in="SourceAlpha" type="matrix" values="0 0 0 0 0 0 0 0 0 0 0 0 0 0 0 0 0 0 127 0" result="hardAlpha"/>
<feOffset dy="4"/>
<feGaussianBlur stdDeviation="2"/>
<feComposite in2="hardAlpha" operator="arithmetic" k2="-1" k3="1"/>
<feColorMatrix type="matrix" values="0 0 0 0 0 0 0 0 0 0 0 0 0 0 0 0 0 0 0.25 0"/>
<feBlend mode="normal" in2="shape" result="effect1_innerShadow_2_2"/>
</filter>
<filter id="filter3_di_2_2" x="309" y="117" width="26" height="32" filterUnits="userSpaceOnUse" color-interpolation-filters="sRGB">
<feFlood flood-opacity="0" result="BackgroundImageFix"/>
<feColorMatrix in="SourceAlpha" type="matrix" values="0 0 0 0 0 0 0 0 0 0 0 0 0 0 0 0 0 0 127 0" result="hardAlpha"/>
<feOffset dx="4"/>
<feGaussianBlur stdDeviation="2"/>
<feComposite in2="hardAlpha" operator="out"/>
<feColorMatrix type="matrix" values="0 0 0 0 1 0 0 0 0 0.977241 0 0 0 0 0.317308 0 0 0 0.5 0"/>
<feBlend mode="normal" in2="BackgroundImageFix" result="effect1_dropShadow_2_2"/>
<feBlend mode="normal" in="SourceGraphic" in2="effect1_dropShadow_2_2" result="shape"/>
<feColorMatrix in="SourceAlpha" type="matrix" values="0 0 0 0 0 0 0 0 0 0 0 0 0 0 0 0 0 0 127 0" result="hardAlpha"/>
<feOffset dy="4"/>
<feGaussianBlur stdDeviation="2"/>
<feComposite in2="hardAlpha" operator="arithmetic" k2="-1" k3="1"/>
<feColorMatrix type="matrix" values="0 0 0 0 0 0 0 0 0 0 0 0 0 0 0 0 0 0 0.25 0"/>
<feBlend mode="normal" in2="shape" result="effect2_innerShadow_2_2"/>
</filter>
<filter id="filter4_f_2_2" x="0" y="181" width="337" height="38" filterUnits="userSpaceOnUse" color-interpolation-filters="sRGB">
<feFlood flood-opacity="0" result="BackgroundImageFix"/>
<feBlend mode="normal" in="SourceGraphic" in2="BackgroundImageFix" result="shape"/>
<feGaussianBlur stdDeviation="2" result="effect1_foregroundBlur_2_2"/>
</filter>
<filter id="filter5_i_2_2" x="225" y="149" width="60" height="64" filterUnits="userSpaceOnUse" color-interpolation-filters="sRGB">
<feFlood flood-opacity="0" result="BackgroundImageFix"/>
<feBlend mode="normal" in="SourceGraphic" in2="BackgroundImageFix" result="shape"/>
<feColorMatrix in="SourceAlpha" type="matrix" values="0 0 0 0 0 0 0 0 0 0 0 0 0 0 0 0 0 0 127 0" result="hardAlpha"/>
<feOffset dy="4"/>
<feGaussianBlur stdDeviation="2"/>
<feComposite in2="hardAlpha" operator="arithmetic" k2="-1" k3="1"/>
<feColorMatrix type="matrix" values="0 0 0 0 0 0 0 0 0 0 0 0 0 0 0 0 0 0 0.25 0"/>
<feBlend mode="normal" in2="shape" result="effect1_innerShadow_2_2"/>
</filter>
<filter id="filter6_i_2_2" x="240" y="164" width="30" height="34" filterUnits="userSpaceOnUse" color-interpolation-filters="sRGB">
<feFlood flood-opacity="0" result="BackgroundImageFix"/>
<feBlend mode="normal" in="SourceGraphic" in2="BackgroundImageFix" result="shape"/>
<feColorMatrix in="SourceAlpha" type="matrix" values="0 0 0 0 0 0 0 0 0 0 0 0 0 0 0 0 0 0 127 0" result="hardAlpha"/>
<feOffset dy="4"/>
<feGaussianBlur stdDeviation="2"/>
<feComposite in2="hardAlpha" operator="arithmetic" k2="-1" k3="1"/>
<feColorMatrix type="matrix" values="0 0 0 0 0 0 0 0 0 0 0 0 0 0 0 0 0 0 0.25 0"/>
<feBlend mode="normal" in2="shape" result="effect1_innerShadow_2_2"/>
</filter>
<filter id="filter7_i_2_2" x="59" y="149" width="60" height="64" filterUnits="userSpaceOnUse" color-interpolation-filters="sRGB">
<feFlood flood-opacity="0" result="BackgroundImageFix"/>
<feBlend mode="normal" in="SourceGraphic" in2="BackgroundImageFix" result="shape"/>
<feColorMatrix in="SourceAlpha" type="matrix" values="0 0 0 0 0 0 0 0 0 0 0 0 0 0 0 0 0 0 127 0" result="hardAlpha"/>
<feOffset dy="4"/>
<feGaussianBlur stdDeviation="2"/>
<feComposite in2="hardAlpha" operator="arithmetic" k2="-1" k3="1"/>
<feColorMatrix type="matrix" values="0 0 0 0 0 0 0 0 0 0 0 0 0 0 0 0 0 0 0.25 0"/>
<feBlend mode="normal" in2="shape" result="effect1_innerShadow_2_2"/>
</filter>
<filter id="filter8_i_2_2" x="74" y="164" width="30" height="34" filterUnits="userSpaceOnUse" color-interpolation-filters="sRGB">
<feFlood flood-opacity="0" result="BackgroundImageFix"/>
<feBlend mode="normal" in="SourceGraphic" in2="BackgroundImageFix" result="shape"/>
<feColorMatrix in="SourceAlpha" type="matrix" values="0 0 0 0 0 0 0 0 0 0 0 0 0 0 0 0 0 0 127 0" result="hardAlpha"/>
<feOffset dy="4"/>
<feGaussianBlur stdDeviation="2"/>
<feComposite in2="hardAlpha" operator="arithmetic" k2="-1" k3="1"/>
<feColorMatrix type="matrix" values="0 0 0 0 0 0 0 0 0 0 0 0 0 0 0 0 0 0 0.25 0"/>
<feBlend mode="normal" in2="shape" result="effect1_innerShadow_2_2"/>
</filter>
<clipPath id="clip0_2_2">
<rect width="337" height="219" fill="white"/>
</clipPath>
</defs>
</svg>
