<svg width="1920" height="360" viewBox="0 0 1920 360" fill="none" xmlns="http://www.w3.org/2000/svg">
<path d="M60 15H0V0H60V15ZM121 15H61V0H121V15ZM182 15H122V0H182V15ZM243 15H183V0H243V15ZM304 15H244V0H304V15ZM365 15H305V0H365V15ZM426 15H366V0H426V15ZM487 15H427V0H487V15ZM548 15H488V0H548V15ZM609 15H549V0H609V15ZM670 15H610V0H670V15ZM731 15H671V0H731V15ZM792 15H732V0H792V15ZM853 15H793V0H853V15ZM914 15H854V0H914V15ZM975 15H915V0H975V15ZM1036 15H976V0H1036V15ZM1097 15H1037V0H1097V15ZM1158 15H1098V0H1158V15ZM1219 15H1159V0H1219V15ZM1280 15H1220V0H1280V15ZM1341 15H1281V0H1341V15ZM1402 15H1342V0H1402V15ZM1463 15H1403V0H1463V15ZM1524 15H1464V0H1524V15ZM1585 15H1525V0H1585V15ZM1646 15H1586V0H1646V15ZM1707 15H1647V0H1707V15ZM1768 15H1708V0H1768V15ZM1829 15H1769V0H1829V15ZM1890 15H1830V0H1890V15ZM1920 15H1891V0H1920V15Z" fill="#D9D9D9"/>
<path d="M60 25H0V15H60V25ZM121 25H61V15H121V25ZM182 25H122V15H182V25ZM243 25H183V15H243V25ZM304 25H244V15H304V25ZM365 25H305V15H365V25ZM426 25H366V15H426V25ZM487 25H427V15H487V25ZM548 25H488V15H548V25ZM609 25H549V15H609V25ZM670 25H610V15H670V25ZM731 25H671V15H731V25ZM792 25H732V15H792V25ZM853 25H793V15H853V25ZM914 25H854V15H914V25ZM975 25H915V15H975V25ZM1036 25H976V15H1036V25ZM1097 25H1037V15H1097V25ZM1158 25H1098V15H1158V25ZM1219 25H1159V15H1219V25ZM1280 25H1220V15H1280V25ZM1341 25H1281V15H1341V25ZM1402 25H1342V15H1402V25ZM1463 25H1403V15H1463V25ZM1524 25H1464V15H1524V25ZM1585 25H1525V15H1585V25ZM1646 25H1586V15H1646V25ZM1707 25H1647V15H1707V25ZM1768 25H1708V15H1768V25ZM1829 25H1769V15H1829V25ZM1890 25H1830V15H1890V25ZM1920 25H1891V15H1920V25Z" fill="#B7B7B7"/>
<rect y="234" width="1920" height="126" fill="#D9D9D9"/>
<rect x="166" y="107" width="70" height="10" fill="#D9D9D9"/>
<rect x="316" y="107" width="70" height="10" fill="#D9D9D9"/>
<rect x="466" y="107" width="70" height="10" fill="#D9D9D9"/>
<rect x="616" y="107" width="70" height="10" fill="#D9D9D9"/>
<rect x="766" y="107" width="70" height="10" fill="#D9D9D9"/>
<rect x="916" y="107" width="70" height="10" fill="#D9D9D9"/>
<rect x="1066" y="107" width="70" height="10" fill="#D9D9D9"/>
<rect x="1216" y="107" width="70" height="10" fill="#D9D9D9"/>
<rect x="1366" y="107" width="70" height="10" fill="#D9D9D9"/>
<rect x="1516" y="107" width="70" height="10" fill="#D9D9D9"/>
<rect x="1666" y="107" width="70" height="10" fill="#D9D9D9"/>
<rect x="1816" y="107" width="70" height="10" fill="#D9D9D9"/>
<rect x="16" y="107" width="70" height="10" fill="#D9D9D9"/>
</svg>
