<svg width="234" height="149" viewBox="0 0 234 149" fill="none" xmlns="http://www.w3.org/2000/svg">
<path d="M150 10H0V149H150V10Z" fill="#D9D9D9"/>
<path d="M150 10H234V149H150V10Z" fill="#A4A2A2"/>
<path d="M150 0H0V10H150V0Z" fill="#EBEBEB"/>
<path d="M234 0H150V10H234V0Z" fill="#B3B1B1"/>
<g filter="url(#filter0_i_48_282)">
<path d="M91.3581 93H58V148.589H91.3581V93Z" fill="#744C29"/>
<path d="M85.293 126.516C86.5491 126.516 87.5674 125.418 87.5674 124.064C87.5674 122.71 86.5491 121.612 85.293 121.612C84.0369 121.612 83.0186 122.71 83.0186 124.064C83.0186 125.418 84.0369 126.516 85.293 126.516Z" fill="#D3BA00"/>
</g>
<path d="M135.825 93.5V125.199H106.5V93.5H135.825Z" fill="#5C5C5C" stroke="#744C29"/>
<path d="M134.826 94.5H107.5V124.2H134.826V94.5Z" fill="#5C5C5C" stroke="#744C29" stroke-width="3"/>
<path d="M42.8252 93.5V125.199H13.5V93.5H42.8252Z" fill="#5C5C5C" stroke="#744C29"/>
<path d="M41.8256 94.5H14.5V124.2H41.8256V94.5Z" fill="#5C5C5C" stroke="#744C29" stroke-width="3"/>
<path d="M42.8252 35.5V67.1992H13.5V35.5H42.8252Z" fill="#5C5C5C" stroke="#744C29"/>
<path d="M41.8256 36.5H14.5V66.1995H41.8256V36.5Z" fill="#5C5C5C" stroke="#744C29" stroke-width="3"/>
<path d="M89.8252 35.5V67.1992H60.5V35.5H89.8252Z" fill="#5C5C5C" stroke="#744C29"/>
<path d="M88.8256 36.5H61.5V66.1995H88.8256V36.5Z" fill="#5C5C5C" stroke="#744C29" stroke-width="3"/>
<path d="M134.825 35.5V67.1992H105.5V35.5H134.825Z" fill="#5C5C5C" stroke="#744C29"/>
<path d="M133.826 36.5H106.5V66.1995H133.826V36.5Z" fill="#5C5C5C" stroke="#744C29" stroke-width="3"/>
<defs>
<filter id="filter0_i_48_282" x="58" y="93" width="33.3582" height="59.589" filterUnits="userSpaceOnUse" color-interpolation-filters="sRGB">
<feFlood flood-opacity="0" result="BackgroundImageFix"/>
<feBlend mode="normal" in="SourceGraphic" in2="BackgroundImageFix" result="shape"/>
<feColorMatrix in="SourceAlpha" type="matrix" values="0 0 0 0 0 0 0 0 0 0 0 0 0 0 0 0 0 0 127 0" result="hardAlpha"/>
<feOffset dy="4"/>
<feGaussianBlur stdDeviation="2"/>
<feComposite in2="hardAlpha" operator="arithmetic" k2="-1" k3="1"/>
<feColorMatrix type="matrix" values="0 0 0 0 0 0 0 0 0 0 0 0 0 0 0 0 0 0 0.25 0"/>
<feBlend mode="normal" in2="shape" result="effect1_innerShadow_48_282"/>
</filter>
</defs>
</svg>
