<svg width="234" height="69" viewBox="0 0 234 69" fill="none" xmlns="http://www.w3.org/2000/svg">
<path d="M150 10H0V69H150V10Z" fill="#3E9B41"/>
<path d="M150 0H0V10H150V0Z" fill="#EBEBEB"/>
<path d="M150 10H234V69H150V10Z" fill="#206222"/>
<path d="M234 0H150V10H234V0Z" fill="#B3B1B1"/>
<g filter="url(#filter0_i_51_16)">
<path d="M42.8252 36.5V68.1992H13.5V36.5H42.8252Z" fill="#FFF951" stroke="#744C29"/>
<path d="M41.8256 37.5H14.5V67.1995H41.8256V37.5Z" fill="#FFF951" stroke="#744C29" stroke-width="3"/>
<path d="M89.8252 36.5V68.1992H60.5V36.5H89.8252Z" fill="#FFF951" stroke="#744C29"/>
<path d="M88.8256 37.5H61.5V67.1995H88.8256V37.5Z" fill="#FFF951" stroke="#744C29" stroke-width="3"/>
<path d="M134.825 36.5V68.1992H105.5V36.5H134.825Z" fill="#FFF951" stroke="#744C29"/>
<path d="M133.826 37.5H106.5V67.1995H133.826V37.5Z" fill="#FFF951" stroke="#744C29" stroke-width="3"/>
</g>
<defs>
<filter id="filter0_i_51_16" x="13" y="36" width="122.326" height="36.6995" filterUnits="userSpaceOnUse" color-interpolation-filters="sRGB">
<feFlood flood-opacity="0" result="BackgroundImageFix"/>
<feBlend mode="normal" in="SourceGraphic" in2="BackgroundImageFix" result="shape"/>
<feColorMatrix in="SourceAlpha" type="matrix" values="0 0 0 0 0 0 0 0 0 0 0 0 0 0 0 0 0 0 127 0" result="hardAlpha"/>
<feOffset dy="4"/>
<feGaussianBlur stdDeviation="2"/>
<feComposite in2="hardAlpha" operator="arithmetic" k2="-1" k3="1"/>
<feColorMatrix type="matrix" values="0 0 0 0 0 0 0 0 0 0 0 0 0 0 0 0 0 0 0.25 0"/>
<feBlend mode="normal" in2="shape" result="effect1_innerShadow_51_16"/>
</filter>
</defs>
</svg>
