<svg width="156" height="228" viewBox="0 0 156 228" fill="none" xmlns="http://www.w3.org/2000/svg">
<g clip-path="url(#clip0_9_20)">
<path d="M148.321 70.3992H12.614V220H148.321V70.3992Z" fill="#3E9B41"/>
<path d="M148.321 70.3992H93.7348V220H148.321V70.3992Z" fill="#206222"/>
<path d="M50.1418 5L91.8339 74.8954H8.44977L50.1418 5Z" fill="#3E9B41"/>
<g filter="url(#filter0_d_9_20)">
<path d="M110.168 1.09564L152 68.665L152.002 76.665L142.389 76.666L141.498 77.0849L141.239 76.6669L134.047 76.6679L133.158 77.0849L132.9 76.6679L125.703 76.6699L124.818 77.0849L124.561 76.6699L117.361 76.6708L116.479 77.0849L116.223 76.6718L109.017 76.6728L108.139 77.0849L107.885 76.6728L100.674 76.6748L99.7996 77.0849L99.5456 76.6748L92.3318 76.6757L91.4607 77.0849L52.0642 13.4365L12.614 77.0849L4.32593 71.4892L47.7117 1.49212L48.0007 1.68646V0.825134H110.168V1.09564Z" fill="#3A3A3A"/>
</g>
<g filter="url(#filter1_i_9_20)">
<path d="M69.4744 164.411H36.1163V220H69.4744V164.411Z" fill="#3A3A3A"/>
<path d="M63.4093 197.927C64.6654 197.927 65.6837 196.829 65.6837 195.475C65.6837 194.121 64.6654 193.023 63.4093 193.023C62.1532 193.023 61.1349 194.121 61.1349 195.475C61.1349 196.829 62.1532 197.927 63.4093 197.927Z" fill="#D3BA00"/>
</g>
<g filter="url(#filter2_i_9_20)">
<path d="M67.4577 94.6065V126.306H38.1325V94.6065H67.4577Z" fill="#5C5C5C" fill-opacity="0.5" stroke="#3A3A3A"/>
<path d="M66.4581 95.6065H39.1325V125.306H66.4581V95.6065Z" fill="#FFF951" fill-opacity="0.5" stroke="#3A3A3A" stroke-width="3"/>
</g>
</g>
<defs>
<filter id="filter0_d_9_20" x="0.32593" y="0.825134" width="155.676" height="84.2598" filterUnits="userSpaceOnUse" color-interpolation-filters="sRGB">
<feFlood flood-opacity="0" result="BackgroundImageFix"/>
<feColorMatrix in="SourceAlpha" type="matrix" values="0 0 0 0 0 0 0 0 0 0 0 0 0 0 0 0 0 0 127 0" result="hardAlpha"/>
<feOffset dy="4"/>
<feGaussianBlur stdDeviation="2"/>
<feComposite in2="hardAlpha" operator="out"/>
<feColorMatrix type="matrix" values="0 0 0 0 0 0 0 0 0 0 0 0 0 0 0 0 0 0 0.25 0"/>
<feBlend mode="normal" in2="BackgroundImageFix" result="effect1_dropShadow_9_20"/>
<feBlend mode="normal" in="SourceGraphic" in2="effect1_dropShadow_9_20" result="shape"/>
</filter>
<filter id="filter1_i_9_20" x="36.1163" y="164.411" width="33.3581" height="59.589" filterUnits="userSpaceOnUse" color-interpolation-filters="sRGB">
<feFlood flood-opacity="0" result="BackgroundImageFix"/>
<feBlend mode="normal" in="SourceGraphic" in2="BackgroundImageFix" result="shape"/>
<feColorMatrix in="SourceAlpha" type="matrix" values="0 0 0 0 0 0 0 0 0 0 0 0 0 0 0 0 0 0 127 0" result="hardAlpha"/>
<feOffset dy="4"/>
<feGaussianBlur stdDeviation="2"/>
<feComposite in2="hardAlpha" operator="arithmetic" k2="-1" k3="1"/>
<feColorMatrix type="matrix" values="0 0 0 0 0 0 0 0 0 0 0 0 0 0 0 0 0 0 0.25 0"/>
<feBlend mode="normal" in2="shape" result="effect1_innerShadow_9_20"/>
</filter>
<filter id="filter2_i_9_20" x="37.6325" y="94.1065" width="30.3256" height="36.6995" filterUnits="userSpaceOnUse" color-interpolation-filters="sRGB">
<feFlood flood-opacity="0" result="BackgroundImageFix"/>
<feBlend mode="normal" in="SourceGraphic" in2="BackgroundImageFix" result="shape"/>
<feColorMatrix in="SourceAlpha" type="matrix" values="0 0 0 0 0 0 0 0 0 0 0 0 0 0 0 0 0 0 127 0" result="hardAlpha"/>
<feOffset dy="4"/>
<feGaussianBlur stdDeviation="2"/>
<feComposite in2="hardAlpha" operator="arithmetic" k2="-1" k3="1"/>
<feColorMatrix type="matrix" values="0 0 0 0 0 0 0 0 0 0 0 0 0 0 0 0 0 0 0.25 0"/>
<feBlend mode="normal" in2="shape" result="effect1_innerShadow_9_20"/>
</filter>
<clipPath id="clip0_9_20">
<rect width="156" height="228" fill="white"/>
</clipPath>
</defs>
</svg>
