<svg width="156" height="220" viewBox="0 0 156 220" fill="none" xmlns="http://www.w3.org/2000/svg">
<path d="M147.995 69.574H12.2881V219.175H147.995V69.574Z" fill="#D9D9D9"/>
<path d="M147.995 69.574H93.4089V219.175H147.995V69.574Z" fill="#8E8585"/>
<path d="M49.8159 4.17487L91.508 74.0703H8.12384L49.8159 4.17487Z" fill="#D9D9D9"/>
<g filter="url(#filter0_d_45_260)">
<path d="M109.842 0.270506L151.674 67.8399L151.676 75.8399L142.063 75.8409L141.172 76.2598L140.913 75.8418L133.721 75.8428L132.832 76.2598L132.574 75.8428L125.377 75.8448L124.492 76.2598L124.235 75.8448L117.035 75.8457L116.153 76.2598L115.897 75.8467L108.691 75.8477L107.813 76.2598L107.559 75.8477L100.348 75.8497L99.4737 76.2598L99.2197 75.8497L92.0059 75.8506L91.1348 76.2598L51.7383 12.6114L12.2881 76.2598L4 70.6641L47.3858 0.666986L47.6748 0.861326V0H109.842V0.270506Z" fill="#6B380B"/>
</g>
<g filter="url(#filter1_i_45_260)">
<path d="M69.1485 163.586H35.7904V219.175H69.1485V163.586Z" fill="#744C29"/>
<path d="M63.0834 197.102C64.3395 197.102 65.3578 196.004 65.3578 194.65C65.3578 193.296 64.3395 192.198 63.0834 192.198C61.8273 192.198 60.809 193.296 60.809 194.65C60.809 196.004 61.8273 197.102 63.0834 197.102Z" fill="#D3BA00"/>
</g>
<rect x="38.6741" y="94.1749" width="28" height="31" fill="white"/>
<g filter="url(#filter2_i_45_260)">
<path d="M67.6322 93.2814H37.3066V125.981H67.6322V93.2814Z" fill="#5C5C5C"/>
<path d="M66.1322 94.7814H38.8066V124.481H66.1322V94.7814Z" fill="#5C5C5C" stroke="#744C29" stroke-width="3"/>
</g>
<defs>
<filter id="filter0_d_45_260" x="0" y="0" width="155.676" height="84.2598" filterUnits="userSpaceOnUse" color-interpolation-filters="sRGB">
<feFlood flood-opacity="0" result="BackgroundImageFix"/>
<feColorMatrix in="SourceAlpha" type="matrix" values="0 0 0 0 0 0 0 0 0 0 0 0 0 0 0 0 0 0 127 0" result="hardAlpha"/>
<feOffset dy="4"/>
<feGaussianBlur stdDeviation="2"/>
<feComposite in2="hardAlpha" operator="out"/>
<feColorMatrix type="matrix" values="0 0 0 0 0 0 0 0 0 0 0 0 0 0 0 0 0 0 0.25 0"/>
<feBlend mode="normal" in2="BackgroundImageFix" result="effect1_dropShadow_45_260"/>
<feBlend mode="normal" in="SourceGraphic" in2="effect1_dropShadow_45_260" result="shape"/>
</filter>
<filter id="filter1_i_45_260" x="35.7904" y="163.586" width="33.3581" height="59.589" filterUnits="userSpaceOnUse" color-interpolation-filters="sRGB">
<feFlood flood-opacity="0" result="BackgroundImageFix"/>
<feBlend mode="normal" in="SourceGraphic" in2="BackgroundImageFix" result="shape"/>
<feColorMatrix in="SourceAlpha" type="matrix" values="0 0 0 0 0 0 0 0 0 0 0 0 0 0 0 0 0 0 127 0" result="hardAlpha"/>
<feOffset dy="4"/>
<feGaussianBlur stdDeviation="2"/>
<feComposite in2="hardAlpha" operator="arithmetic" k2="-1" k3="1"/>
<feColorMatrix type="matrix" values="0 0 0 0 0 0 0 0 0 0 0 0 0 0 0 0 0 0 0.25 0"/>
<feBlend mode="normal" in2="shape" result="effect1_innerShadow_45_260"/>
</filter>
<filter id="filter2_i_45_260" x="37.3066" y="93.2814" width="30.3256" height="36.6995" filterUnits="userSpaceOnUse" color-interpolation-filters="sRGB">
<feFlood flood-opacity="0" result="BackgroundImageFix"/>
<feBlend mode="normal" in="SourceGraphic" in2="BackgroundImageFix" result="shape"/>
<feColorMatrix in="SourceAlpha" type="matrix" values="0 0 0 0 0 0 0 0 0 0 0 0 0 0 0 0 0 0 127 0" result="hardAlpha"/>
<feOffset dy="4"/>
<feGaussianBlur stdDeviation="2"/>
<feComposite in2="hardAlpha" operator="arithmetic" k2="-1" k3="1"/>
<feColorMatrix type="matrix" values="0 0 0 0 0 0 0 0 0 0 0 0 0 0 0 0 0 0 0.25 0"/>
<feBlend mode="normal" in2="shape" result="effect1_innerShadow_45_260"/>
</filter>
</defs>
</svg>
