<svg width="171" height="113" viewBox="0 0 171 113" fill="none" xmlns="http://www.w3.org/2000/svg">
<path d="M30.4336 12.7832L30.2168 13.5537V113H0.216797V13.5537L0 12.7832L15.2168 0L30.4336 12.7832ZM75.4336 12.7832L75.2168 13.5537V113H45.2168V13.5537L45 12.7832L60.2168 0L75.4336 12.7832Z" fill="#C98643"/>
<path d="M35.2168 113H30.2168V13L15.2168 0H20.2168L35.2168 13V113Z" fill="#A05D1A"/>
<path d="M80.2168 113H75.2168V13L60.2168 0H65.2168L80.2168 13V113Z" fill="#A05D1A"/>
<rect x="35.2168" y="28" width="10" height="1" fill="#A05D1A"/>
<rect x="35.2168" y="75" width="10" height="1" fill="#A05D1A"/>
<rect x="30.2168" y="29" width="15" height="12" fill="#C98643"/>
<rect x="30.2168" y="76" width="15" height="12" fill="#C98643"/>
<rect x="80.2168" y="28" width="10" height="1" fill="#A05D1A"/>
<rect x="80.2168" y="75" width="10" height="1" fill="#A05D1A"/>
<rect x="75.2168" y="29" width="15" height="12" fill="#C98643"/>
<rect x="75.2168" y="76" width="15" height="12" fill="#C98643"/>
<path d="M120.434 12.7832L120.217 13.5537V113H90.2168V13.5537L90 12.7832L105.217 0L120.434 12.7832ZM165.434 12.7832L165.217 13.5537V113H135.217V13.5537L135 12.7832L150.217 0L165.434 12.7832Z" fill="#C98643"/>
<path d="M125.217 13V28H135.217V29H125.217V75H135.217V76H125.217V113H120.217V13L105.217 0H110.217L125.217 13ZM170.217 13V113H165.217V13L150.217 0H155.217L170.217 13Z" fill="#A05D1A"/>
<path d="M135.217 88H120.217V76H135.217V88ZM135.217 41H120.217V29H135.217V41Z" fill="#C98643"/>
</svg>
